<svg width="369" height="45" viewBox="0 0 369 45" fill="none" xmlns="http://www.w3.org/2000/svg">
<path d="M56.872 4.48C56.8293 4.52267 56.7227 4.53333 56.552 4.512C56.4027 4.49067 56.1893 4.512 55.912 4.576C55.656 4.64 55.336 4.768 54.952 4.96C54.5893 5.152 54.1627 5.472 53.672 5.92C53.032 6.47467 52.3173 7.296 51.528 8.384C50.76 9.472 49.96 10.72 49.128 12.128C48.296 13.536 47.4533 15.0507 46.6 16.672C45.768 18.2933 44.9573 19.904 44.168 21.504C42.3333 25.28 40.456 29.3973 38.536 33.856C38.3013 33.8773 38.0027 33.8773 37.64 33.856C37.2773 33.8347 36.8933 33.7707 36.488 33.664C36.0827 33.5573 35.6667 33.3973 35.24 33.184C34.8347 32.992 34.4613 32.7253 34.12 32.384C34.0347 32.3627 33.8427 32.256 33.544 32.064C33.2667 31.872 32.9467 31.6373 32.584 31.36C32.2213 31.0827 31.8373 30.7627 31.432 30.4C31.0267 30.0587 30.6533 29.7173 30.312 29.376C29.9707 29.056 29.6827 28.736 29.448 28.416C29.2347 28.1173 29.128 27.872 29.128 27.68C29.128 27.488 29.192 27.136 29.32 26.624C29.448 26.112 29.608 25.504 29.8 24.8C30.0133 24.0747 30.248 23.2853 30.504 22.432C30.76 21.5787 31.0267 20.7253 31.304 19.872C31.944 17.8667 32.68 15.6373 33.512 13.184C32.8933 13.888 32.1893 14.8373 31.4 16.032C30.632 17.2053 29.832 18.4747 29 19.84C28.168 21.184 27.3467 22.5493 26.536 23.936C25.7253 25.3013 24.9893 26.5493 24.328 27.68C23.6667 28.7893 23.1013 29.696 22.632 30.4C22.184 31.104 21.896 31.456 21.768 31.456H21.704C21.1493 31.456 20.488 31.2 19.72 30.688C18.9733 30.176 18.248 29.5787 17.544 28.896C16.8613 28.2133 16.2747 27.5413 15.784 26.88C15.2933 26.2187 15.048 25.728 15.048 25.408C15.048 24.5333 15.2933 23.4027 15.784 22.016C16.2747 20.608 16.8613 19.0827 17.544 17.44C18.2267 15.776 18.92 14.048 19.624 12.256C20.328 10.464 20.904 8.71467 21.352 7.008C21.1387 6.816 20.8827 6.688 20.584 6.624C20.3067 6.53867 20.0187 6.496 19.72 6.496C19.2293 6.496 18.4827 6.67733 17.48 7.04C16.4987 7.40267 15.4 7.86133 14.184 8.416C12.968 8.97067 11.72 9.58933 10.44 10.272C9.18133 10.9547 8.02933 11.6267 6.984 12.288C5.93867 12.928 5.07467 13.5253 4.392 14.08C3.73067 14.6133 3.4 15.008 3.4 15.264C3.4 15.7973 3.47467 16.1813 3.624 16.416C3.77333 16.6507 3.88 16.8213 3.944 16.928C3.98667 17.0347 3.86933 17.0987 3.592 17.12C3.336 17.1413 3.016 17.1307 2.632 17.088C2.26933 17.0453 1.90667 16.9813 1.544 16.896C1.18133 16.7893 0.925333 16.672 0.776 16.544C0.562667 16.3307 0.413333 15.9787 0.328 15.488C0.221333 14.976 0.178667 14.4107 0.2 13.792C0.2 13.1733 0.253333 12.5227 0.36 11.84C0.445333 11.1573 0.573333 10.528 0.744 9.952C0.850667 9.58933 1.32 9.14133 2.152 8.608C2.984 8.07467 4.008 7.52 5.224 6.944C6.46133 6.368 7.80533 5.80267 9.256 5.248C10.7067 4.672 12.104 4.16 13.448 3.712C14.8133 3.24267 16.04 2.86933 17.128 2.592C18.2373 2.31467 19.048 2.176 19.56 2.176C19.88 2.176 20.2 2.24 20.52 2.368C20.84 2.47466 21.1493 2.624 21.448 2.816C21.7467 3.008 22.0133 3.22133 22.248 3.456C22.504 3.69067 22.7173 3.92533 22.888 4.16C23.0587 4.288 23.4213 4.52267 23.976 4.864C24.5307 5.184 25.1067 5.54667 25.704 5.952C26.3227 6.35733 26.8667 6.77333 27.336 7.2C27.8267 7.60533 28.072 7.94667 28.072 8.224C28.072 8.416 27.912 8.88533 27.592 9.632C27.272 10.3573 26.8667 11.2533 26.376 12.32C25.8853 13.3867 25.3413 14.5813 24.744 15.904C24.1467 17.2053 23.5707 18.528 23.016 19.872C22.4827 21.1947 22.0027 22.4853 21.576 23.744C21.1493 25.0027 20.8507 26.1227 20.68 27.104C20.9573 26.8053 21.3307 26.3253 21.8 25.664C22.2693 24.9813 22.792 24.192 23.368 23.296C23.944 22.4 24.5627 21.4293 25.224 20.384C25.8853 19.3173 26.5573 18.2613 27.24 17.216C27.9227 16.1707 28.5947 15.168 29.256 14.208C29.9173 13.2267 30.536 12.3627 31.112 11.616C31.688 10.848 32.2 10.24 32.648 9.792C33.096 9.344 33.4587 9.12 33.736 9.12C34.0773 9.12 34.5573 9.28 35.176 9.6C35.7947 9.92 36.392 10.3147 36.968 10.784C37.544 11.232 38.024 11.7013 38.408 12.192C38.8133 12.6827 38.9733 13.0987 38.888 13.44C38.824 13.6747 38.6853 14.1547 38.472 14.88C38.28 15.584 38.0347 16.416 37.736 17.376C37.4587 18.336 37.1493 19.3813 36.808 20.512C36.4667 21.6213 36.136 22.7093 35.816 23.776C35.496 24.8213 35.1973 25.8027 34.92 26.72C34.6427 27.616 34.4293 28.32 34.28 28.832C35.688 25.888 37.096 22.9867 38.504 20.128C39.912 17.248 41.2773 14.5707 42.6 12.096C43.944 9.6 45.2133 7.38133 46.408 5.44C47.624 3.47733 48.744 1.94133 49.768 0.831999C50.152 0.405333 50.6107 0.181332 51.144 0.159998C51.6987 0.138665 52.264 0.234665 52.84 0.447998C53.4373 0.661332 54.0133 0.970666 54.568 1.376C55.1227 1.76 55.592 2.15467 55.976 2.56C56.3813 2.96533 56.6693 3.34933 56.84 3.712C57.032 4.07467 57.0427 4.33067 56.872 4.48ZM68.4062 16.832C68.7263 16.4907 69.0143 16.2987 69.2703 16.256C69.4836 16.2133 69.6756 16.32 69.8463 16.576C70.0383 16.832 70.1343 17.376 70.1343 18.208C68.5769 20.2347 67.1583 22.0373 65.8783 23.616C65.3236 24.2987 64.7796 24.96 64.2463 25.6C63.7129 26.24 63.2116 26.816 62.7423 27.328C62.2943 27.8187 61.8996 28.2133 61.5583 28.512C61.2383 28.832 61.0143 28.992 60.8863 28.992C60.6516 28.992 60.4063 28.9493 60.1503 28.864C59.9156 28.7787 59.7023 28.6507 59.5103 28.48C59.1476 28.3093 58.7529 28.1067 58.3263 27.872C57.8996 27.6373 57.5049 27.4027 57.1423 27.168C56.8009 26.9333 56.5023 26.7093 56.2463 26.496C56.0116 26.2827 55.8943 26.1013 55.8943 25.952C55.8303 25.4827 55.8516 24.96 55.9583 24.384C56.0649 23.808 56.2249 23.2107 56.4383 22.592C56.6516 21.952 56.9076 21.3013 57.2063 20.64C57.5049 19.9787 57.8143 19.328 58.1343 18.688C57.5156 19.4987 56.8756 20.3627 56.2143 21.28C55.5529 22.1973 54.9449 23.1147 54.3903 24.032C53.8356 24.9493 53.3556 25.8453 52.9503 26.72C52.5449 27.5733 52.2783 28.3413 52.1503 29.024C52.0009 29.024 51.6383 28.8853 51.0623 28.608C50.4863 28.3307 49.8783 28.0107 49.2383 27.648C48.5983 27.264 48.0222 26.8907 47.5102 26.528C46.9982 26.1653 46.7316 25.8987 46.7102 25.728C46.6249 24.9813 46.7422 24.0107 47.0622 22.816C47.3609 21.6 47.7556 20.2987 48.2462 18.912C48.7369 17.504 49.2809 16.0747 49.8783 14.624C50.4756 13.152 51.0303 11.7867 51.5423 10.528C52.0543 9.26933 52.4703 8.18133 52.7903 7.264C53.1316 6.34667 53.2809 5.71733 53.2383 5.376C53.4516 5.376 53.8249 5.49333 54.3583 5.728C54.9129 5.96266 55.4783 6.25067 56.0543 6.592C56.6303 6.912 57.1423 7.25333 57.5903 7.616C58.0596 7.97867 58.3049 8.29867 58.3263 8.576C58.3476 8.74667 58.1769 9.25867 57.8142 10.112C57.4516 10.944 57.0036 11.9893 56.4703 13.248C55.9369 14.4853 55.3716 15.8613 54.7743 17.376C54.1769 18.8693 53.6543 20.3627 53.2063 21.856C53.9956 20.576 54.8596 19.3493 55.7983 18.176C56.7369 17.0027 57.6116 15.9787 58.4223 15.104C59.2329 14.208 59.9049 13.4933 60.4383 12.96C60.9929 12.4267 61.2703 12.16 61.2703 12.16C61.4836 12.16 61.8249 12.2667 62.2943 12.48C62.7849 12.6933 63.2756 12.96 63.7663 13.28C64.2783 13.5787 64.7263 13.9093 65.1103 14.272C65.4943 14.6133 65.7076 14.912 65.7503 15.168C65.7716 15.4027 65.5796 15.8827 65.1743 16.608C64.7689 17.3333 64.2889 18.208 63.7343 19.232C63.2009 20.256 62.6676 21.376 62.1343 22.592C61.6009 23.7867 61.2169 24.96 60.9823 26.112C61.6436 25.4293 62.4009 24.5653 63.2543 23.52C64.1076 22.4747 64.9183 21.4507 65.6863 20.448C66.5823 19.2747 67.4889 18.0693 68.4062 16.832ZM86.0593 17.216C86.2513 17.5787 86.3899 17.952 86.4753 18.336C86.5393 18.6773 86.5499 19.0507 86.5073 19.456C86.4859 19.84 86.3473 20.2133 86.0913 20.576C85.6433 21.1733 85.0566 21.728 84.3313 22.24C83.6273 22.752 82.9019 23.1893 82.1553 23.552C81.1739 24.0213 80.1926 24.3093 79.2113 24.416C78.7846 25.0987 78.3046 25.7813 77.7713 26.464C77.2593 27.1467 76.6939 27.7547 76.0753 28.288C75.4779 28.8213 74.8486 29.248 74.1873 29.568C73.5259 29.9093 72.8539 30.08 72.1713 30.08C71.6379 30.08 71.0299 29.888 70.3473 29.504C69.6859 29.1413 69.0459 28.6933 68.4273 28.16C67.8299 27.6267 67.3179 27.072 66.8912 26.496C66.4646 25.8987 66.2299 25.376 66.1872 24.928C66.0592 23.6053 66.1872 22.272 66.5712 20.928C66.9339 19.584 67.4459 18.368 68.1073 17.28C68.7686 16.192 69.5259 15.3067 70.3793 14.624C71.2326 13.92 72.0646 13.568 72.8753 13.568C73.2166 13.568 73.6433 13.696 74.1553 13.952C74.6886 14.1867 75.2219 14.4747 75.7552 14.816C76.2886 15.136 76.7686 15.4667 77.1953 15.808C77.6433 16.128 77.9526 16.3627 78.1233 16.512C78.4433 16.576 78.7526 16.672 79.0513 16.8C79.3713 16.928 79.6593 17.12 79.9153 17.376C80.1926 17.632 80.4273 17.9627 80.6193 18.368C80.8113 18.752 80.9393 19.2427 81.0033 19.84C81.0459 20.3947 80.8006 21.2587 80.2673 22.432C80.5019 22.368 80.7046 22.2933 80.8753 22.208C81.0673 22.1227 81.2486 22.048 81.4193 21.984C81.8886 21.7493 82.3473 21.4507 82.7953 21.088C83.2433 20.7253 83.6699 20.3307 84.0753 19.904C84.4806 19.4773 84.8433 19.04 85.1632 18.592C85.5046 18.1227 85.8033 17.664 86.0593 17.216ZM77.8673 18.656C77.8033 18.1653 77.6326 17.824 77.3553 17.632C77.0993 17.44 76.8326 17.3227 76.5553 17.28C75.9793 17.6 75.3926 18.1013 74.7953 18.784C74.7526 18.8907 74.7313 18.9973 74.7313 19.104C74.7313 19.1893 74.7313 19.2853 74.7313 19.392C74.7526 19.6693 74.8273 19.9573 74.9553 20.256C75.1046 20.5333 75.2753 20.8 75.4673 21.056C75.6593 21.2907 75.8619 21.5147 76.0753 21.728C76.3099 21.92 76.5339 22.08 76.7473 22.208C77.1099 21.44 77.3979 20.736 77.6113 20.096C77.8246 19.456 77.9099 18.976 77.8673 18.656ZM71.6273 28.192C71.9686 28.192 72.3206 28.0747 72.6833 27.84C73.0673 27.584 73.4406 27.2533 73.8033 26.848C74.1873 26.4427 74.5606 25.9733 74.9233 25.44C75.2859 24.9067 75.6273 24.352 75.9473 23.776C75.6486 23.6053 75.3499 23.392 75.0513 23.136C74.7526 22.88 74.4753 22.6027 74.2193 22.304C74.0486 22.0907 73.8779 21.856 73.7073 21.6C73.5366 21.3227 73.3873 21.024 73.2593 20.704C72.5766 21.728 72.0326 22.816 71.6273 23.968C71.2433 25.12 71.1046 26.208 71.2113 27.232C71.2113 27.296 71.2113 27.3813 71.2113 27.488C71.2326 27.5947 71.2539 27.7013 71.2753 27.808C71.3179 27.9147 71.3606 28 71.4033 28.064C71.4673 28.1493 71.5419 28.192 71.6273 28.192ZM91.9703 12C91.8209 12 91.4796 11.9147 90.9463 11.744C90.4343 11.552 89.9009 11.3067 89.3463 11.008C88.7916 10.7093 88.2903 10.3787 87.8423 10.016C87.3943 9.632 87.1703 9.25867 87.1703 8.896C87.1703 8.46933 87.2876 7.98933 87.5223 7.456C87.7569 6.90133 88.0129 6.368 88.2903 5.856C88.5889 5.344 88.8556 4.896 89.0903 4.512C89.3249 4.10667 89.4423 3.82933 89.4423 3.68C89.5063 3.68 89.6663 3.744 89.9223 3.872C90.1996 3.97867 90.5089 4.128 90.8503 4.32C91.2129 4.49067 91.5863 4.69333 91.9703 4.928C92.3543 5.16267 92.6956 5.408 92.9943 5.664C93.2929 5.89867 93.5276 6.13333 93.6983 6.368C93.8689 6.60267 93.9116 6.80533 93.8263 6.976C93.6556 7.36 93.4636 7.79733 93.2503 8.288C93.0369 8.75733 92.8343 9.22667 92.6423 9.696C92.4502 10.1653 92.2903 10.6133 92.1623 11.04C92.0343 11.4453 91.9703 11.7653 91.9703 12ZM94.1143 17.024C94.3276 16.7253 94.5196 16.576 94.6903 16.576C94.8396 16.576 94.9676 16.7253 95.0743 17.024C95.2023 17.3013 95.2663 17.8773 95.2663 18.752C93.9649 20.7787 92.7916 22.592 91.7463 24.192C91.2983 24.8747 90.8503 25.5467 90.4023 26.208C89.9756 26.848 89.5809 27.424 89.2183 27.936C88.8556 28.448 88.5463 28.8533 88.2903 29.152C88.0556 29.472 87.9063 29.632 87.8423 29.632C87.6716 29.632 87.5009 29.5893 87.3303 29.504C87.1809 29.4187 87.0209 29.3227 86.8503 29.216C86.5516 29.1093 86.1356 28.9067 85.6023 28.608C85.0903 28.3093 84.5783 27.968 84.0663 27.584C83.5542 27.2 83.1169 26.8053 82.7542 26.4C82.3702 25.9947 82.1782 25.632 82.1782 25.312C82.1782 24.6933 82.2849 23.9467 82.4982 23.072C82.7116 22.1973 82.9782 21.2907 83.2982 20.352C83.6182 19.4133 83.9703 18.4853 84.3543 17.568C84.7383 16.6293 85.0903 15.7867 85.4103 15.04C85.7303 14.272 85.9969 13.6427 86.2103 13.152C86.4236 12.64 86.5303 12.3413 86.5303 12.256C86.5943 12.256 86.7543 12.32 87.0103 12.448C87.2876 12.5547 87.5969 12.704 87.9383 12.896C88.3009 13.0667 88.6743 13.2693 89.0583 13.504C89.4423 13.7387 89.7836 13.984 90.0823 14.24C90.3809 14.4747 90.6156 14.7093 90.7863 14.944C90.9569 15.1787 90.9996 15.3813 90.9143 15.552C90.7863 15.8507 90.5516 16.3733 90.2103 17.12C89.8689 17.8453 89.5063 18.7093 89.1223 19.712C88.7383 20.6933 88.3649 21.7493 88.0023 22.88C87.6609 24.0107 87.4049 25.1093 87.2343 26.176L94.1143 17.024ZM98.1215 12.672C98.9962 12.672 99.6682 12.8533 100.138 13.216C100.607 13.5573 100.938 13.9627 101.13 14.432C101.343 14.88 101.46 15.328 101.482 15.776C101.503 16.2027 101.514 16.4907 101.514 16.64C101.514 16.7893 101.364 16.9173 101.066 17.024C100.767 17.1307 100.436 17.3013 100.074 17.536C99.7108 17.7707 99.3802 18.1227 99.0815 18.592C98.7828 19.04 98.6335 19.7013 98.6335 20.576C98.6335 21.1093 98.7295 21.6533 98.9215 22.208C99.1135 22.7627 99.3268 23.328 99.5615 23.904C99.8175 24.4587 100.042 25.024 100.234 25.6C100.426 26.176 100.522 26.752 100.522 27.328C100.522 27.904 100.362 28.5227 100.042 29.184C99.7428 29.8667 99.2842 30.496 98.6655 31.072C98.0468 31.648 97.2575 32.128 96.2975 32.512C95.3375 32.896 94.2068 33.088 92.9055 33.088C92.0522 33.088 91.2415 32.9707 90.4735 32.736C89.6842 32.5013 88.9908 32.1813 88.3935 31.776C87.7962 31.392 87.3268 30.944 86.9855 30.432C86.6228 29.9413 86.4415 29.4187 86.4415 28.864C86.4415 28.3307 86.6548 27.904 87.0815 27.584C87.4868 27.264 87.9562 27.04 88.4895 26.912C89.0228 26.7627 89.5348 26.6987 90.0255 26.72C90.4948 26.7413 90.7828 26.8053 90.8895 26.912C90.9962 27.0187 91.0175 27.2 90.9535 27.456C90.8682 27.712 90.7935 27.968 90.7295 28.224C90.6442 28.48 90.6335 28.704 90.6975 28.896C90.7402 29.088 90.9428 29.184 91.3055 29.184C91.6682 29.184 92.0415 29.1307 92.4255 29.024C92.7882 28.9387 93.1188 28.8 93.4175 28.608C93.7162 28.416 93.9615 28.1707 94.1535 27.872C94.3455 27.5733 94.4415 27.232 94.4415 26.848C94.4415 26.464 94.3882 25.9947 94.2815 25.44C94.1748 24.864 94.0468 24.2667 93.8975 23.648C93.7695 23.0293 93.6522 22.4213 93.5455 21.824C93.4388 21.2053 93.3855 20.6613 93.3855 20.192C93.3855 19.4027 93.4922 18.5707 93.7055 17.696C93.9402 16.8 94.2602 15.9787 94.6655 15.232C95.0922 14.4853 95.5935 13.8773 96.1695 13.408C96.7668 12.9173 97.4175 12.672 98.1215 12.672ZM113.221 17.664C113.434 17.3653 113.637 17.216 113.829 17.216C113.978 17.216 114.117 17.3653 114.245 17.664C114.373 17.9413 114.437 18.5173 114.437 19.392C112.709 21.9307 111.151 24.192 109.765 26.176C109.167 27.0293 108.581 27.8613 108.005 28.672C107.429 29.4827 106.906 30.208 106.437 30.848C105.967 31.488 105.573 32 105.253 32.384C104.933 32.768 104.741 32.96 104.677 32.96C104.314 32.96 103.941 32.8 103.557 32.48C103.215 32.288 102.821 32.0427 102.373 31.744C101.925 31.4453 101.509 31.1253 101.125 30.784C100.719 30.4427 100.389 30.1013 100.133 29.76C99.8554 29.4187 99.7167 29.0987 99.7167 28.8C99.7167 28.1813 99.8554 27.3067 100.133 26.176C100.41 25.024 100.783 23.744 101.253 22.336C101.701 20.9067 102.223 19.4027 102.821 17.824C103.418 16.2453 104.037 14.688 104.677 13.152C105.317 11.616 105.957 10.176 106.597 8.832C107.258 7.46667 107.866 6.29333 108.421 5.312C108.591 5.20533 108.933 5.28 109.445 5.536C109.957 5.77067 110.469 6.09067 110.981 6.496C111.493 6.88 111.919 7.296 112.261 7.744C112.623 8.17067 112.741 8.52267 112.613 8.8C112.506 9.01333 112.271 9.48267 111.909 10.208C111.567 10.912 111.141 11.7973 110.629 12.864C110.117 13.9093 109.562 15.0933 108.965 16.416C108.389 17.7387 107.823 19.1253 107.269 20.576C106.714 22.0267 106.202 23.4987 105.733 24.992C105.263 26.4853 104.911 27.9253 104.677 29.312C105.018 28.9067 105.402 28.4267 105.829 27.872C106.255 27.3173 106.703 26.7307 107.173 26.112C107.642 25.472 108.111 24.8213 108.581 24.16C109.071 23.4987 109.541 22.8587 109.989 22.24C111.034 20.768 112.111 19.2427 113.221 17.664ZM128.381 17.824C128.594 17.696 128.786 17.6853 128.957 17.792C129.149 17.8987 129.309 18.0587 129.437 18.272C129.586 18.464 129.682 18.6667 129.725 18.88C129.789 19.0933 129.8 19.2427 129.757 19.328C129.544 19.6693 129.192 20.16 128.701 20.8C128.232 21.44 127.677 22.144 127.037 22.912C126.397 23.68 125.693 24.4587 124.925 25.248C124.157 26.0373 123.389 26.7627 122.621 27.424C121.853 28.064 121.096 28.5867 120.349 28.992C119.624 29.4187 118.962 29.632 118.365 29.632C117.64 29.632 116.84 29.5147 115.965 29.28C115.112 29.0453 114.301 28.672 113.533 28.16C112.786 27.6693 112.168 27.04 111.677 26.272C111.165 25.4827 110.909 24.544 110.909 23.456C110.909 21.92 111.186 20.48 111.741 19.136C112.274 17.7707 112.914 16.5867 113.661 15.584C114.429 14.56 115.229 13.7493 116.061 13.152C116.893 12.5333 117.608 12.2133 118.205 12.192C118.376 12.192 118.674 12.2773 119.101 12.448C119.528 12.5973 119.986 12.8 120.477 13.056C120.968 13.2907 121.437 13.5573 121.885 13.856C122.333 14.1547 122.674 14.4427 122.909 14.72C123.058 14.72 123.24 14.7627 123.453 14.848C123.666 14.9333 123.869 15.0827 124.061 15.296C124.274 15.5093 124.456 15.808 124.605 16.192C124.754 16.576 124.829 17.0667 124.829 17.664C124.786 18.3467 124.637 19.0293 124.381 19.712C124.146 20.3947 123.805 21.0133 123.357 21.568C122.909 22.1013 122.354 22.5493 121.693 22.912C121.032 23.2533 120.264 23.424 119.389 23.424C118.429 23.424 117.693 23.2747 117.181 22.976C116.69 22.656 116.36 22.2613 116.189 21.792C116.125 22.0267 116.061 22.24 115.997 22.432C115.933 22.624 115.88 22.816 115.837 23.008C115.794 23.1787 115.752 23.3707 115.709 23.584C115.688 23.7973 115.666 24.0533 115.645 24.352C115.624 24.8 115.688 25.2053 115.837 25.568C115.986 25.9307 116.2 26.24 116.477 26.496C116.754 26.752 117.064 26.944 117.405 27.072C117.768 27.2 118.141 27.2533 118.525 27.232C118.952 27.2107 119.442 27.04 119.997 26.72C120.552 26.3787 121.138 25.9413 121.757 25.408C122.397 24.8747 123.037 24.2773 123.677 23.616C124.317 22.9333 124.925 22.2507 125.501 21.568C126.098 20.864 126.642 20.192 127.133 19.552C127.645 18.8907 128.061 18.3147 128.381 17.824ZM121.949 15.392C121.736 15.392 121.405 15.4987 120.957 15.712C120.53 15.9253 120.05 16.2453 119.517 16.672C119.005 17.0987 118.482 17.6533 117.949 18.336C117.416 18.9973 116.957 19.7973 116.573 20.736C116.68 20.8427 116.829 20.928 117.021 20.992C117.213 21.056 117.458 21.088 117.757 21.088C118.376 21.088 118.941 20.9067 119.453 20.544C119.986 20.16 120.456 19.6907 120.861 19.136C121.266 18.56 121.608 17.952 121.885 17.312C122.162 16.672 122.365 16.096 122.493 15.584C122.365 15.456 122.184 15.392 121.949 15.392ZM132.278 12.672C133.152 12.672 133.824 12.8533 134.294 13.216C134.763 13.5573 135.094 13.9627 135.286 14.432C135.499 14.88 135.616 15.328 135.638 15.776C135.659 16.2027 135.67 16.4907 135.67 16.64C135.67 16.7893 135.52 16.9173 135.222 17.024C134.923 17.1307 134.592 17.3013 134.23 17.536C133.867 17.7707 133.536 18.1227 133.238 18.592C132.939 19.04 132.79 19.7013 132.79 20.576C132.79 21.1093 132.886 21.6533 133.078 22.208C133.27 22.7627 133.483 23.328 133.718 23.904C133.974 24.4587 134.198 25.024 134.39 25.6C134.582 26.176 134.678 26.752 134.678 27.328C134.678 27.904 134.518 28.5227 134.198 29.184C133.899 29.8667 133.44 30.496 132.822 31.072C132.203 31.648 131.414 32.128 130.454 32.512C129.494 32.896 128.363 33.088 127.062 33.088C126.208 33.088 125.398 32.9707 124.63 32.736C123.84 32.5013 123.147 32.1813 122.55 31.776C121.952 31.392 121.483 30.944 121.142 30.432C120.779 29.9413 120.598 29.4187 120.598 28.864C120.598 28.3307 120.811 27.904 121.238 27.584C121.643 27.264 122.112 27.04 122.646 26.912C123.179 26.7627 123.691 26.6987 124.182 26.72C124.651 26.7413 124.939 26.8053 125.046 26.912C125.152 27.0187 125.174 27.2 125.11 27.456C125.024 27.712 124.95 27.968 124.886 28.224C124.8 28.48 124.79 28.704 124.854 28.896C124.896 29.088 125.099 29.184 125.462 29.184C125.824 29.184 126.198 29.1307 126.582 29.024C126.944 28.9387 127.275 28.8 127.574 28.608C127.872 28.416 128.118 28.1707 128.31 27.872C128.502 27.5733 128.598 27.232 128.598 26.848C128.598 26.464 128.544 25.9947 128.438 25.44C128.331 24.864 128.203 24.2667 128.054 23.648C127.926 23.0293 127.808 22.4213 127.702 21.824C127.595 21.2053 127.542 20.6613 127.542 20.192C127.542 19.4027 127.648 18.5707 127.862 17.696C128.096 16.8 128.416 15.9787 128.822 15.232C129.248 14.4853 129.75 13.8773 130.326 13.408C130.923 12.9173 131.574 12.672 132.278 12.672ZM156.625 16.832C156.945 16.4907 157.233 16.2987 157.489 16.256C157.702 16.2133 157.894 16.32 158.065 16.576C158.257 16.832 158.353 17.376 158.353 18.208C156.796 20.2347 155.377 22.0373 154.097 23.616C153.542 24.2987 152.998 24.96 152.465 25.6C151.932 26.24 151.43 26.816 150.961 27.328C150.513 27.8187 150.118 28.2133 149.777 28.512C149.457 28.832 149.233 28.992 149.105 28.992C148.87 28.992 148.625 28.9493 148.369 28.864C148.134 28.7787 147.921 28.6507 147.729 28.48C147.366 28.3093 146.972 28.1067 146.545 27.872C146.118 27.6373 145.724 27.4027 145.361 27.168C145.02 26.9333 144.721 26.7093 144.465 26.496C144.23 26.2827 144.113 26.1013 144.113 25.952C144.049 25.4827 144.07 24.96 144.177 24.384C144.284 23.808 144.444 23.2107 144.657 22.592C144.87 21.952 145.126 21.3013 145.425 20.64C145.724 19.9787 146.033 19.328 146.353 18.688C145.734 19.4987 145.094 20.3627 144.433 21.28C143.772 22.1973 143.164 23.1147 142.609 24.032C142.054 24.9493 141.574 25.8453 141.169 26.72C140.764 27.5733 140.497 28.3413 140.369 29.024C140.22 29.024 139.857 28.8853 139.281 28.608C138.705 28.3307 138.097 28.0107 137.457 27.648C136.817 27.264 136.241 26.8907 135.729 26.528C135.217 26.1653 134.95 25.8987 134.929 25.728C134.844 24.9813 134.961 24.0107 135.281 22.816C135.58 21.6 135.974 20.2987 136.465 18.912C136.956 17.504 137.5 16.0747 138.097 14.624C138.694 13.152 139.249 11.7867 139.761 10.528C140.273 9.26933 140.689 8.18133 141.009 7.264C141.35 6.34667 141.5 5.71733 141.457 5.376C141.67 5.376 142.044 5.49333 142.577 5.728C143.132 5.96266 143.697 6.25067 144.273 6.592C144.849 6.912 145.361 7.25333 145.809 7.616C146.278 7.97867 146.524 8.29867 146.545 8.576C146.566 8.74667 146.396 9.25867 146.033 10.112C145.67 10.944 145.222 11.9893 144.689 13.248C144.156 14.4853 143.59 15.8613 142.993 17.376C142.396 18.8693 141.873 20.3627 141.425 21.856C142.214 20.576 143.078 19.3493 144.017 18.176C144.956 17.0027 145.83 15.9787 146.641 15.104C147.452 14.208 148.124 13.4933 148.657 12.96C149.212 12.4267 149.489 12.16 149.489 12.16C149.702 12.16 150.044 12.2667 150.513 12.48C151.004 12.6933 151.494 12.96 151.985 13.28C152.497 13.5787 152.945 13.9093 153.329 14.272C153.713 14.6133 153.926 14.912 153.969 15.168C153.99 15.4027 153.798 15.8827 153.393 16.608C152.988 17.3333 152.508 18.208 151.953 19.232C151.42 20.256 150.886 21.376 150.353 22.592C149.82 23.7867 149.436 24.96 149.201 26.112C149.862 25.4293 150.62 24.5653 151.473 23.52C152.326 22.4747 153.137 21.4507 153.905 20.448C154.801 19.2747 155.708 18.0693 156.625 16.832ZM175.686 17.568C175.878 17.2693 176.059 17.1093 176.23 17.088C176.358 17.088 176.475 17.2373 176.582 17.536C176.71 17.8133 176.774 18.4 176.774 19.296C175.238 21.3653 173.841 23.2107 172.582 24.832C172.049 25.536 171.515 26.2187 170.982 26.88C170.449 27.5413 169.958 28.128 169.51 28.64C169.062 29.152 168.667 29.568 168.326 29.888C168.006 30.208 167.793 30.368 167.686 30.368C167.515 30.368 167.313 30.3147 167.078 30.208C166.865 30.1227 166.662 30.0053 166.47 29.856C166.107 29.664 165.702 29.4187 165.254 29.12C164.827 28.8427 164.422 28.544 164.038 28.224C163.654 27.904 163.334 27.584 163.078 27.264C162.822 26.944 162.694 26.656 162.694 26.4V26.144C162.203 26.976 161.766 27.6587 161.382 28.192C161.019 28.7253 160.763 28.992 160.614 28.992C160.401 28.992 160.187 28.928 159.974 28.8C159.547 28.6293 159.003 28.3733 158.342 28.032C157.681 27.712 157.03 27.36 156.39 26.976C155.771 26.5707 155.238 26.1547 154.79 25.728C154.321 25.28 154.086 24.8747 154.086 24.512C154.086 23.8933 154.182 23.2107 154.374 22.464C154.545 21.696 154.79 20.928 155.11 20.16C155.409 19.392 155.739 18.6453 156.102 17.92C156.486 17.1733 156.87 16.5227 157.254 15.968C157.659 15.392 158.033 14.9333 158.374 14.592C158.737 14.2507 159.046 14.08 159.302 14.08C159.686 14.08 160.177 14.1653 160.774 14.336C161.393 14.4853 162.022 14.688 162.662 14.944C163.302 15.2 163.91 15.5093 164.486 15.872C165.062 16.2133 165.51 16.576 165.83 16.96C165.979 16.7253 166.107 16.5013 166.214 16.288C166.321 16.0747 166.427 15.8827 166.534 15.712C166.811 15.2 167.025 14.784 167.174 14.464C167.323 14.1227 167.398 13.9093 167.398 13.824C167.505 13.824 167.814 13.952 168.326 14.208C168.859 14.4427 169.403 14.7307 169.958 15.072C170.513 15.4133 170.982 15.776 171.366 16.16C171.771 16.544 171.91 16.8747 171.782 17.152C171.654 17.4507 171.409 17.9413 171.046 18.624C170.705 19.2853 170.331 20.0747 169.926 20.992C169.521 21.9093 169.126 22.8907 168.742 23.936C168.358 24.9813 168.059 26.016 167.846 27.04C168.187 26.6987 168.561 26.304 168.966 25.856C169.393 25.3867 169.819 24.896 170.246 24.384C170.673 23.872 171.099 23.3493 171.526 22.816C171.974 22.2827 172.401 21.76 172.806 21.248C173.745 20.0747 174.705 18.848 175.686 17.568ZM159.014 26.304C159.035 26.5387 159.142 26.592 159.334 26.464C159.547 26.3147 159.825 26.0267 160.166 25.6C160.507 25.1733 160.891 24.6507 161.318 24.032C161.766 23.392 162.225 22.72 162.694 22.016C163.163 21.2907 163.622 20.5547 164.07 19.808C164.539 19.0613 164.977 18.3573 165.382 17.696C165.211 17.5893 165.009 17.504 164.774 17.44C164.561 17.376 164.326 17.344 164.07 17.344C163.729 17.344 163.377 17.504 163.014 17.824C162.673 18.144 162.321 18.5707 161.958 19.104C161.617 19.616 161.275 20.2027 160.934 20.864C160.614 21.504 160.315 22.1653 160.038 22.848C159.782 23.5093 159.558 24.1493 159.366 24.768C159.195 25.3653 159.078 25.8773 159.014 26.304ZM185.721 17.664C185.934 17.3653 186.137 17.216 186.329 17.216C186.478 17.216 186.617 17.3653 186.745 17.664C186.873 17.9413 186.937 18.5173 186.937 19.392C185.209 21.9307 183.651 24.192 182.265 26.176C181.667 27.0293 181.081 27.8613 180.505 28.672C179.929 29.4827 179.406 30.208 178.937 30.848C178.467 31.488 178.073 32 177.753 32.384C177.433 32.768 177.241 32.96 177.177 32.96C176.814 32.96 176.441 32.8 176.057 32.48C175.715 32.288 175.321 32.0427 174.873 31.744C174.425 31.4453 174.009 31.1253 173.625 30.784C173.219 30.4427 172.889 30.1013 172.633 29.76C172.355 29.4187 172.217 29.0987 172.217 28.8C172.217 28.1813 172.355 27.3067 172.633 26.176C172.91 25.024 173.283 23.744 173.753 22.336C174.201 20.9067 174.723 19.4027 175.321 17.824C175.918 16.2453 176.537 14.688 177.177 13.152C177.817 11.616 178.457 10.176 179.097 8.832C179.758 7.46667 180.366 6.29333 180.921 5.312C181.091 5.20533 181.433 5.28 181.945 5.536C182.457 5.77067 182.969 6.09067 183.481 6.496C183.993 6.88 184.419 7.296 184.761 7.744C185.123 8.17067 185.241 8.52267 185.113 8.8C185.006 9.01333 184.771 9.48267 184.409 10.208C184.067 10.912 183.641 11.7973 183.129 12.864C182.617 13.9093 182.062 15.0933 181.465 16.416C180.889 17.7387 180.323 19.1253 179.769 20.576C179.214 22.0267 178.702 23.4987 178.233 24.992C177.763 26.4853 177.411 27.9253 177.177 29.312C177.518 28.9067 177.902 28.4267 178.329 27.872C178.755 27.3173 179.203 26.7307 179.673 26.112C180.142 25.472 180.611 24.8213 181.081 24.16C181.571 23.4987 182.041 22.8587 182.489 22.24C183.534 20.768 184.611 19.2427 185.721 17.664ZM192.689 12C192.54 12 192.198 11.9147 191.665 11.744C191.153 11.552 190.62 11.3067 190.065 11.008C189.51 10.7093 189.009 10.3787 188.561 10.016C188.113 9.632 187.889 9.25867 187.889 8.896C187.889 8.46933 188.006 7.98933 188.241 7.456C188.476 6.90133 188.732 6.368 189.009 5.856C189.308 5.344 189.574 4.896 189.809 4.512C190.044 4.10667 190.161 3.82933 190.161 3.68C190.225 3.68 190.385 3.744 190.641 3.872C190.918 3.97867 191.228 4.128 191.569 4.32C191.932 4.49067 192.305 4.69333 192.689 4.928C193.073 5.16267 193.414 5.408 193.713 5.664C194.012 5.89867 194.246 6.13333 194.417 6.368C194.588 6.60267 194.63 6.80533 194.545 6.976C194.374 7.36 194.182 7.79733 193.969 8.288C193.756 8.75733 193.553 9.22667 193.361 9.696C193.169 10.1653 193.009 10.6133 192.881 11.04C192.753 11.4453 192.689 11.7653 192.689 12ZM194.833 17.024C195.046 16.7253 195.238 16.576 195.409 16.576C195.558 16.576 195.686 16.7253 195.793 17.024C195.921 17.3013 195.985 17.8773 195.985 18.752C194.684 20.7787 193.51 22.592 192.465 24.192C192.017 24.8747 191.569 25.5467 191.121 26.208C190.694 26.848 190.3 27.424 189.937 27.936C189.574 28.448 189.265 28.8533 189.009 29.152C188.774 29.472 188.625 29.632 188.561 29.632C188.39 29.632 188.22 29.5893 188.049 29.504C187.9 29.4187 187.74 29.3227 187.569 29.216C187.27 29.1093 186.854 28.9067 186.321 28.608C185.809 28.3093 185.297 27.968 184.785 27.584C184.273 27.2 183.836 26.8053 183.473 26.4C183.089 25.9947 182.897 25.632 182.897 25.312C182.897 24.6933 183.004 23.9467 183.217 23.072C183.43 22.1973 183.697 21.2907 184.017 20.352C184.337 19.4133 184.689 18.4853 185.073 17.568C185.457 16.6293 185.809 15.7867 186.129 15.04C186.449 14.272 186.716 13.6427 186.929 13.152C187.142 12.64 187.249 12.3413 187.249 12.256C187.313 12.256 187.473 12.32 187.729 12.448C188.006 12.5547 188.316 12.704 188.657 12.896C189.02 13.0667 189.393 13.2693 189.777 13.504C190.161 13.7387 190.502 13.984 190.801 14.24C191.1 14.4747 191.334 14.7093 191.505 14.944C191.676 15.1787 191.718 15.3813 191.633 15.552C191.505 15.8507 191.27 16.3733 190.929 17.12C190.588 17.8453 190.225 18.7093 189.841 19.712C189.457 20.6933 189.084 21.7493 188.721 22.88C188.38 24.0107 188.124 25.1093 187.953 26.176L194.833 17.024ZM207.543 28.704C208.417 28.704 209.164 28.8747 209.783 29.216C210.423 29.5787 210.945 30.0373 211.351 30.592C211.777 31.1467 212.087 31.776 212.279 32.48C212.492 33.184 212.599 33.888 212.599 34.592C212.599 34.8907 212.471 35.2427 212.215 35.648C211.98 36.0533 211.703 36.416 211.383 36.736C211.084 37.0773 210.807 37.3227 210.551 37.472C210.316 37.6427 210.199 37.632 210.199 37.44C210.199 36.9707 210.092 36.4693 209.879 35.936C209.687 35.424 209.345 34.9547 208.855 34.528C208.364 34.1013 207.713 33.7493 206.903 33.472C206.092 33.1947 205.089 33.0453 203.895 33.024C203.276 34.5387 202.647 35.9787 202.007 37.344C201.388 38.7307 200.769 39.9467 200.151 40.992C199.553 42.0373 198.967 42.8693 198.391 43.488C197.815 44.128 197.292 44.448 196.823 44.448C196.225 44.448 195.553 44.3627 194.807 44.192C194.081 44.0213 193.399 43.68 192.759 43.168C192.097 42.656 191.553 41.9413 191.127 41.024C190.679 40.1067 190.455 38.8907 190.455 37.376C190.455 36.5867 190.7 35.7973 191.191 35.008C191.681 34.24 192.375 33.504 193.271 32.8C194.167 32.096 195.244 31.456 196.503 30.88C197.761 30.304 199.159 29.8347 200.695 29.472C201.292 27.8933 201.857 26.3147 202.391 24.736C202.945 23.1573 203.436 21.6533 203.863 20.224C203.308 21.2267 202.743 22.24 202.167 23.264C201.612 24.2667 201.089 25.1733 200.599 25.984C200.129 26.7947 199.713 27.456 199.351 27.968C198.988 28.48 198.732 28.736 198.583 28.736C198.369 28.736 198.156 28.672 197.943 28.544C197.516 28.3733 196.972 28.128 196.311 27.808C195.649 27.4667 194.999 27.104 194.359 26.72C193.74 26.3147 193.207 25.8987 192.759 25.472C192.289 25.024 192.055 24.6187 192.055 24.256C192.055 23.6373 192.151 22.9547 192.343 22.208C192.535 21.44 192.78 20.672 193.079 19.904C193.377 19.136 193.719 18.3893 194.103 17.664C194.487 16.9173 194.871 16.2667 195.255 15.712C195.639 15.136 196.001 14.6773 196.343 14.336C196.705 13.9947 197.015 13.824 197.271 13.824C197.655 13.824 198.135 13.8987 198.711 14.048C199.287 14.1973 199.884 14.4 200.503 14.656C201.143 14.8907 201.74 15.1787 202.295 15.52C202.871 15.84 203.329 16.1813 203.671 16.544C203.905 16.1173 204.129 15.7227 204.343 15.36C204.556 14.9973 204.737 14.6773 204.887 14.4C205.057 14.1013 205.217 13.824 205.367 13.568C205.473 13.568 205.783 13.696 206.295 13.952C206.828 14.1867 207.372 14.4747 207.927 14.816C208.481 15.1573 208.951 15.52 209.335 15.904C209.74 16.288 209.879 16.6187 209.751 16.896C209.687 17.0667 209.527 17.5147 209.271 18.24C209.036 18.944 208.727 19.84 208.343 20.928C207.98 21.9947 207.553 23.2107 207.063 24.576C206.593 25.92 206.092 27.3173 205.559 28.768C205.879 28.7253 206.199 28.704 206.519 28.704C206.86 28.704 207.201 28.704 207.543 28.704ZM196.983 26.048C197.004 26.2827 197.111 26.3253 197.303 26.176C197.495 26.0267 197.751 25.7493 198.071 25.344C198.412 24.9387 198.785 24.4267 199.191 23.808C199.617 23.168 200.055 22.496 200.503 21.792C200.951 21.0667 201.409 20.32 201.879 19.552C202.348 18.784 202.785 18.048 203.191 17.344C203.02 17.28 202.839 17.2267 202.647 17.184C202.476 17.12 202.273 17.088 202.039 17.088C201.719 17.088 201.377 17.248 201.015 17.568C200.652 17.888 200.289 18.3147 199.927 18.848C199.585 19.36 199.255 19.9467 198.935 20.608C198.615 21.248 198.316 21.9093 198.039 22.592C197.783 23.2533 197.559 23.8933 197.367 24.512C197.175 25.1093 197.047 25.6213 196.983 26.048ZM194.935 41.472C195.084 41.472 195.297 41.2693 195.575 40.864C195.873 40.48 196.193 39.936 196.535 39.232C196.897 38.5493 197.292 37.728 197.719 36.768C198.145 35.8293 198.583 34.8053 199.031 33.696C197.623 34.144 196.471 34.7627 195.575 35.552C194.7 36.3413 194.263 37.2267 194.263 38.208C194.263 38.9547 194.284 39.5413 194.327 39.968C194.391 40.3947 194.455 40.7147 194.519 40.928C194.604 41.1627 194.679 41.312 194.743 41.376C194.828 41.44 194.892 41.472 194.935 41.472ZM230.312 16.832C230.633 16.4907 230.921 16.2987 231.177 16.256C231.39 16.2133 231.582 16.32 231.753 16.576C231.945 16.832 232.041 17.376 232.041 18.208C230.483 20.2347 229.065 22.0373 227.785 23.616C227.23 24.2987 226.686 24.96 226.153 25.6C225.619 26.24 225.118 26.816 224.649 27.328C224.201 27.8187 223.806 28.2133 223.465 28.512C223.145 28.832 222.921 28.992 222.793 28.992C222.558 28.992 222.313 28.9493 222.057 28.864C221.822 28.7787 221.609 28.6507 221.417 28.48C221.054 28.3093 220.659 28.1067 220.233 27.872C219.806 27.6373 219.411 27.4027 219.049 27.168C218.707 26.9333 218.409 26.7093 218.153 26.496C217.918 26.2827 217.801 26.1013 217.801 25.952C217.737 25.4827 217.758 24.96 217.865 24.384C217.971 23.808 218.131 23.2107 218.345 22.592C218.558 21.952 218.814 21.3013 219.113 20.64C219.411 19.9787 219.721 19.328 220.041 18.688C219.422 19.4987 218.782 20.3627 218.121 21.28C217.459 22.1973 216.851 23.1147 216.297 24.032C215.742 24.9493 215.262 25.8453 214.857 26.72C214.451 27.5733 214.185 28.3413 214.057 29.024C213.907 29.024 213.545 28.8853 212.969 28.608C212.393 28.3307 211.785 28.0107 211.145 27.648C210.505 27.264 209.928 26.8907 209.416 26.528C208.904 26.1653 208.638 25.8987 208.616 25.728C208.531 24.9813 208.648 24.0107 208.968 22.816C209.267 21.6 209.662 20.2987 210.152 18.912C210.643 17.504 211.187 16.0747 211.785 14.624C212.382 13.152 212.937 11.7867 213.449 10.528C213.961 9.26933 214.377 8.18133 214.697 7.264C215.038 6.34667 215.187 5.71733 215.145 5.376C215.358 5.376 215.731 5.49333 216.265 5.728C216.819 5.96266 217.385 6.25067 217.961 6.592C218.537 6.912 219.049 7.25333 219.497 7.616C219.966 7.97867 220.211 8.29867 220.233 8.576C220.254 8.74667 220.083 9.25867 219.72 10.112C219.358 10.944 218.91 11.9893 218.377 13.248C217.843 14.4853 217.278 15.8613 216.681 17.376C216.083 18.8693 215.561 20.3627 215.113 21.856C215.902 20.576 216.766 19.3493 217.705 18.176C218.643 17.0027 219.518 15.9787 220.329 15.104C221.139 14.208 221.811 13.4933 222.345 12.96C222.899 12.4267 223.177 12.16 223.177 12.16C223.39 12.16 223.731 12.2667 224.201 12.48C224.691 12.6933 225.182 12.96 225.673 13.28C226.185 13.5787 226.633 13.9093 227.017 14.272C227.401 14.6133 227.614 14.912 227.657 15.168C227.678 15.4027 227.486 15.8827 227.081 16.608C226.675 17.3333 226.195 18.208 225.641 19.232C225.107 20.256 224.574 21.376 224.041 22.592C223.507 23.7867 223.123 24.96 222.889 26.112C223.55 25.4293 224.307 24.5653 225.161 23.52C226.014 22.4747 226.825 21.4507 227.593 20.448C228.489 19.2747 229.395 18.0693 230.312 16.832ZM240.446 17.184C240.638 16.928 240.819 16.8 240.99 16.8C241.118 16.8213 241.235 16.9707 241.342 17.248C241.47 17.5253 241.534 18.08 241.534 18.912C239.848 21.4507 238.323 23.712 236.958 25.696C236.382 26.5493 235.806 27.3813 235.23 28.192C234.654 29.0027 234.131 29.728 233.661 30.368C233.214 31.008 232.83 31.52 232.51 31.904C232.211 32.288 232.03 32.48 231.966 32.48C231.603 32.48 231.23 32.32 230.846 32C230.504 31.808 230.11 31.5627 229.662 31.264C229.235 30.9653 228.829 30.6453 228.445 30.304C228.04 29.9627 227.699 29.6213 227.421 29.28C227.144 28.9387 227.005 28.6187 227.005 28.32C227.005 27.8293 227.091 27.1787 227.261 26.368C227.432 25.536 227.677 24.608 227.997 23.584C228.296 22.56 228.648 21.4613 229.053 20.288C229.459 19.0933 229.896 17.8773 230.366 16.64C229.619 16.64 229.043 16.6933 228.637 16.8C228.211 16.8853 227.891 16.9707 227.677 17.056C227.464 17.1413 227.315 17.2053 227.229 17.248C227.144 17.2907 227.069 17.2693 227.005 17.184C226.877 17.0773 226.888 16.832 227.037 16.448C227.187 16.064 227.4 15.6373 227.677 15.168C227.933 14.6987 228.232 14.24 228.573 13.792C228.893 13.344 229.181 12.992 229.438 12.736C229.587 12.5867 229.886 12.512 230.334 12.512C230.803 12.512 231.358 12.544 231.998 12.608C232.318 11.8613 232.606 11.1893 232.862 10.592C233.118 9.99467 233.363 9.45067 233.598 8.96C233.832 8.448 234.056 7.968 234.27 7.52C234.504 7.05066 234.76 6.57066 235.038 6.08C235.208 5.97333 235.55 6.048 236.062 6.304C236.574 6.53867 237.086 6.85867 237.598 7.264C238.11 7.648 238.536 8.064 238.878 8.512C239.24 8.96 239.358 9.32267 239.23 9.6C239.187 9.728 239.123 9.87733 239.038 10.048C238.974 10.1973 238.867 10.4107 238.718 10.688C238.59 10.944 238.419 11.2853 238.206 11.712C238.014 12.1387 237.768 12.672 237.47 13.312C238.067 13.3547 238.59 13.3547 239.038 13.312C239.486 13.2693 239.795 13.1627 239.966 12.992C240.179 12.8 240.296 12.7787 240.318 12.928C240.339 13.056 240.296 13.2907 240.19 13.632C240.083 13.9733 239.923 14.368 239.71 14.816C239.496 15.2427 239.272 15.6587 239.038 16.064C238.803 16.448 238.558 16.7787 238.302 17.056C238.046 17.3333 237.822 17.4613 237.63 17.44C237.288 17.376 236.958 17.3227 236.638 17.28C236.339 17.216 236.04 17.1627 235.742 17.12C234.952 18.976 234.206 20.9173 233.502 22.944C232.819 24.9707 232.307 26.9333 231.966 28.832C232.307 28.4267 232.691 27.9467 233.118 27.392C233.566 26.8373 234.014 26.2507 234.462 25.632C234.931 24.992 235.4 24.3413 235.87 23.68C236.339 23.0187 236.798 22.3787 237.246 21.76C238.27 20.288 239.336 18.7627 240.446 17.184ZM258.407 15.712C258.535 15.584 258.801 15.392 259.207 15.136C259.612 14.8587 260.071 14.5173 260.583 14.112C261.116 13.6853 261.649 13.216 262.183 12.704C262.737 12.1707 263.217 11.584 263.623 10.944C263.388 10.6453 263.121 10.4107 262.823 10.24C262.545 10.0693 262.247 9.984 261.927 9.984C260.775 9.984 259.548 10.1333 258.247 10.432C256.967 10.7307 255.697 11.1893 254.439 11.808C253.18 12.4053 251.964 13.1627 250.791 14.08C249.639 14.9973 248.615 16.064 247.719 17.28C246.844 18.4747 246.14 19.8293 245.607 21.344C245.095 22.8587 244.839 24.5227 244.839 26.336C244.839 26.912 244.935 27.3707 245.127 27.712C245.319 28.0533 245.564 28.3093 245.863 28.48C246.161 28.672 246.503 28.7893 246.887 28.832C247.292 28.8747 247.697 28.896 248.103 28.896C249.575 28.896 250.951 28.6613 252.231 28.192C253.511 27.744 254.684 27.1787 255.751 26.496C256.817 25.792 257.767 25.0453 258.599 24.256C259.452 23.4453 260.177 22.6987 260.775 22.016C261.372 21.312 261.841 20.736 262.183 20.288C262.524 19.8187 262.727 19.584 262.791 19.584C262.897 19.584 263.004 19.68 263.111 19.872C263.239 20.0427 263.345 20.256 263.431 20.512C263.537 20.768 263.612 21.0347 263.655 21.312C263.719 21.5893 263.729 21.8133 263.687 21.984C263.495 22.7947 263.132 23.6693 262.599 24.608C262.087 25.5467 261.457 26.4853 260.711 27.424C259.964 28.3413 259.132 29.2267 258.215 30.08C257.319 30.9547 256.391 31.712 255.431 32.352C254.471 33.0133 253.511 33.536 252.551 33.92C251.591 34.3253 250.695 34.528 249.863 34.528C249.415 34.528 248.817 34.4 248.071 34.144C247.345 33.9093 246.556 33.5573 245.703 33.088C244.871 32.64 244.017 32.0853 243.143 31.424C242.289 30.784 241.511 30.0373 240.807 29.184C240.124 28.352 239.569 27.4453 239.143 26.464C238.695 25.4613 238.471 24.3947 238.471 23.264C238.471 21.4933 238.855 19.7973 239.623 18.176C240.369 16.5333 241.351 15.008 242.567 13.6C243.783 12.192 245.159 10.912 246.695 9.76C248.231 8.608 249.767 7.62667 251.303 6.816C252.839 5.984 254.3 5.344 255.687 4.896C257.095 4.448 258.279 4.224 259.239 4.224C259.9 4.224 260.508 4.36267 261.063 4.64C261.639 4.91733 262.151 5.28 262.599 5.728C263.047 6.15466 263.42 6.64533 263.719 7.2C264.039 7.73333 264.295 8.26667 264.487 8.8C264.551 8.544 264.583 8.288 264.583 8.032C264.583 7.88267 264.753 7.85067 265.095 7.936C265.436 8.02133 265.809 8.21333 266.215 8.512C266.641 8.81067 267.025 9.22667 267.367 9.76C267.729 10.2933 267.911 10.9333 267.911 11.68C267.911 12.32 267.655 12.96 267.143 13.6C266.652 14.24 266.055 14.8267 265.351 15.36C264.647 15.872 263.911 16.2987 263.143 16.64C262.375 16.9813 261.713 17.152 261.159 17.152C260.903 17.152 260.593 17.0987 260.231 16.992C259.889 16.8853 259.559 16.7573 259.239 16.608C258.94 16.4373 258.705 16.2667 258.535 16.096C258.364 15.9253 258.321 15.7973 258.407 15.712ZM284.12 17.408C284.205 17.5787 284.29 17.7387 284.376 17.888C284.482 18.0373 284.557 18.2187 284.6 18.432C284.664 18.6453 284.674 18.9013 284.632 19.2C284.61 19.4987 284.525 19.8827 284.376 20.352C282.648 22.4213 281.069 24.2667 279.64 25.888C279.021 26.5707 278.413 27.2427 277.816 27.904C277.218 28.5653 276.664 29.152 276.152 29.664C275.661 30.176 275.234 30.592 274.872 30.912C274.53 31.232 274.296 31.392 274.168 31.392H274.072C274.008 31.392 273.954 31.3813 273.911 31.36C273.741 31.3387 273.528 31.2533 273.272 31.104C272.909 30.9333 272.493 30.6987 272.024 30.4C271.554 30.1013 271.096 29.7813 270.648 29.44C270.221 29.0987 269.858 28.7467 269.56 28.384C269.261 28.0427 269.112 27.7227 269.112 27.424C269.112 26.784 269.25 25.9947 269.528 25.056C269.826 24.096 270.189 23.0933 270.616 22.048C271.042 20.9813 271.501 19.9147 271.992 18.848C272.504 17.76 272.973 16.768 273.4 15.872C273.058 15.9787 272.706 16.1067 272.344 16.256C271.981 16.384 271.64 16.5227 271.32 16.672C271.021 16.8 270.754 16.928 270.52 17.056C270.306 17.1627 270.157 17.248 270.072 17.312C269.965 17.312 269.677 17.2053 269.208 16.992L266.84 20.096C266.648 20.3307 266.488 20.416 266.36 20.352C266.253 20.3093 266.146 20.128 266.04 19.808C265.954 19.488 265.912 18.8907 265.912 18.016L267.384 15.904C266.786 15.4987 266.253 15.072 265.784 14.624C265.335 14.1547 265.111 13.7387 265.111 13.376C265.111 12.7787 265.303 12.1067 265.688 11.36C266.05 10.592 266.456 9.856 266.904 9.152C267.352 8.448 267.757 7.82933 268.12 7.296C268.504 6.76267 268.696 6.432 268.696 6.304C268.802 6.304 269.112 6.432 269.624 6.688C270.157 6.92267 270.701 7.22133 271.256 7.584C271.81 7.92533 272.28 8.288 272.664 8.672C273.069 9.03467 273.208 9.35467 273.08 9.632C272.866 10.08 272.546 10.6773 272.12 11.424C271.693 12.1493 271.288 12.9493 270.904 13.824C271.288 13.6533 271.693 13.504 272.12 13.376C272.568 13.2267 272.984 13.0987 273.368 12.992C273.752 12.8853 274.082 12.8107 274.36 12.768C274.637 12.704 274.818 12.672 274.904 12.672H274.936H274.968C275.074 12.7147 275.266 12.8213 275.544 12.992C275.821 13.1627 276.13 13.3867 276.472 13.664C276.813 13.92 277.165 14.2187 277.528 14.56C277.912 14.88 278.242 15.2 278.52 15.52C278.797 15.8187 279.01 16.1173 279.16 16.416C279.33 16.6933 279.373 16.9173 279.288 17.088C279.16 17.3867 278.872 17.9307 278.424 18.72C277.976 19.5093 277.485 20.4373 276.952 21.504C276.44 22.5493 275.928 23.6693 275.416 24.864C274.925 26.0587 274.552 27.2107 274.296 28.32C274.68 27.9787 275.106 27.5627 275.576 27.072C276.066 26.5813 276.578 26.048 277.112 25.472C277.645 24.896 278.189 24.2987 278.744 23.68C279.298 23.0613 279.832 22.4533 280.344 21.856C281.56 20.448 282.818 18.9653 284.12 17.408ZM298.787 17.824C299.001 17.696 299.193 17.6853 299.363 17.792C299.555 17.8987 299.715 18.0587 299.843 18.272C299.993 18.464 300.089 18.6667 300.131 18.88C300.195 19.0933 300.206 19.2427 300.163 19.328C299.95 19.6693 299.598 20.16 299.107 20.8C298.638 21.44 298.083 22.144 297.443 22.912C296.803 23.68 296.099 24.4587 295.331 25.248C294.563 26.0373 293.795 26.7627 293.027 27.424C292.259 28.064 291.502 28.5867 290.755 28.992C290.03 29.4187 289.369 29.632 288.771 29.632C288.046 29.632 287.246 29.5147 286.371 29.28C285.518 29.0453 284.707 28.672 283.939 28.16C283.193 27.6693 282.574 27.04 282.083 26.272C281.571 25.4827 281.315 24.544 281.315 23.456C281.315 21.92 281.593 20.48 282.147 19.136C282.681 17.7707 283.321 16.5867 284.067 15.584C284.835 14.56 285.635 13.7493 286.467 13.152C287.299 12.5333 288.014 12.2133 288.611 12.192C288.782 12.192 289.081 12.2773 289.507 12.448C289.934 12.5973 290.393 12.8 290.883 13.056C291.374 13.2907 291.843 13.5573 292.291 13.856C292.739 14.1547 293.081 14.4427 293.315 14.72C293.465 14.72 293.646 14.7627 293.859 14.848C294.073 14.9333 294.275 15.0827 294.467 15.296C294.681 15.5093 294.862 15.808 295.011 16.192C295.161 16.576 295.235 17.0667 295.235 17.664C295.193 18.3467 295.043 19.0293 294.787 19.712C294.553 20.3947 294.211 21.0133 293.763 21.568C293.315 22.1013 292.761 22.5493 292.099 22.912C291.438 23.2533 290.67 23.424 289.795 23.424C288.835 23.424 288.099 23.2747 287.587 22.976C287.097 22.656 286.766 22.2613 286.595 21.792C286.531 22.0267 286.467 22.24 286.403 22.432C286.339 22.624 286.286 22.816 286.243 23.008C286.201 23.1787 286.158 23.3707 286.115 23.584C286.094 23.7973 286.073 24.0533 286.051 24.352C286.03 24.8 286.094 25.2053 286.243 25.568C286.393 25.9307 286.606 26.24 286.883 26.496C287.161 26.752 287.47 26.944 287.811 27.072C288.174 27.2 288.547 27.2533 288.931 27.232C289.358 27.2107 289.849 27.04 290.403 26.72C290.958 26.3787 291.545 25.9413 292.163 25.408C292.803 24.8747 293.443 24.2773 294.083 23.616C294.723 22.9333 295.331 22.2507 295.907 21.568C296.505 20.864 297.049 20.192 297.539 19.552C298.051 18.8907 298.467 18.3147 298.787 17.824ZM292.355 15.392C292.142 15.392 291.811 15.4987 291.363 15.712C290.937 15.9253 290.457 16.2453 289.923 16.672C289.411 17.0987 288.889 17.6533 288.355 18.336C287.822 18.9973 287.363 19.7973 286.979 20.736C287.086 20.8427 287.235 20.928 287.427 20.992C287.619 21.056 287.865 21.088 288.163 21.088C288.782 21.088 289.347 20.9067 289.859 20.544C290.393 20.16 290.862 19.6907 291.267 19.136C291.673 18.56 292.014 17.952 292.291 17.312C292.569 16.672 292.771 16.096 292.899 15.584C292.771 15.456 292.59 15.392 292.355 15.392ZM317.967 17.568C318.159 17.2693 318.341 17.1093 318.511 17.088C318.639 17.088 318.757 17.2373 318.863 17.536C318.991 17.8133 319.055 18.4 319.055 19.296C317.519 21.3653 316.122 23.2107 314.863 24.832C314.33 25.536 313.797 26.2187 313.263 26.88C312.73 27.5413 312.239 28.128 311.791 28.64C311.343 29.152 310.949 29.568 310.607 29.888C310.287 30.208 310.074 30.368 309.967 30.368C309.797 30.368 309.594 30.3147 309.359 30.208C309.146 30.1227 308.943 30.0053 308.751 29.856C308.389 29.664 307.983 29.4187 307.535 29.12C307.109 28.8427 306.703 28.544 306.319 28.224C305.935 27.904 305.615 27.584 305.359 27.264C305.103 26.944 304.975 26.656 304.975 26.4V26.144C304.485 26.976 304.047 27.6587 303.663 28.192C303.301 28.7253 303.045 28.992 302.895 28.992C302.682 28.992 302.469 28.928 302.255 28.8C301.829 28.6293 301.285 28.3733 300.623 28.032C299.962 27.712 299.311 27.36 298.671 26.976C298.053 26.5707 297.519 26.1547 297.071 25.728C296.602 25.28 296.367 24.8747 296.367 24.512C296.367 23.8933 296.463 23.2107 296.655 22.464C296.826 21.696 297.071 20.928 297.391 20.16C297.69 19.392 298.021 18.6453 298.383 17.92C298.767 17.1733 299.151 16.5227 299.535 15.968C299.941 15.392 300.314 14.9333 300.655 14.592C301.018 14.2507 301.327 14.08 301.583 14.08C301.967 14.08 302.458 14.1653 303.055 14.336C303.674 14.4853 304.303 14.688 304.943 14.944C305.583 15.2 306.191 15.5093 306.767 15.872C307.343 16.2133 307.791 16.576 308.111 16.96C308.261 16.7253 308.389 16.5013 308.495 16.288C308.602 16.0747 308.709 15.8827 308.815 15.712C309.093 15.2 309.306 14.784 309.455 14.464C309.605 14.1227 309.679 13.9093 309.679 13.824C309.786 13.824 310.095 13.952 310.607 14.208C311.141 14.4427 311.685 14.7307 312.239 15.072C312.794 15.4133 313.263 15.776 313.647 16.16C314.053 16.544 314.191 16.8747 314.063 17.152C313.935 17.4507 313.69 17.9413 313.327 18.624C312.986 19.2853 312.613 20.0747 312.207 20.992C311.802 21.9093 311.407 22.8907 311.023 23.936C310.639 24.9813 310.341 26.016 310.127 27.04C310.469 26.6987 310.842 26.304 311.247 25.856C311.674 25.3867 312.101 24.896 312.527 24.384C312.954 23.872 313.381 23.3493 313.807 22.816C314.255 22.2827 314.682 21.76 315.087 21.248C316.026 20.0747 316.986 18.848 317.967 17.568ZM301.295 26.304C301.317 26.5387 301.423 26.592 301.615 26.464C301.829 26.3147 302.106 26.0267 302.447 25.6C302.789 25.1733 303.173 24.6507 303.599 24.032C304.047 23.392 304.506 22.72 304.975 22.016C305.445 21.2907 305.903 20.5547 306.351 19.808C306.821 19.0613 307.258 18.3573 307.663 17.696C307.493 17.5893 307.29 17.504 307.055 17.44C306.842 17.376 306.607 17.344 306.351 17.344C306.01 17.344 305.658 17.504 305.295 17.824C304.954 18.144 304.602 18.5707 304.239 19.104C303.898 19.616 303.557 20.2027 303.215 20.864C302.895 21.504 302.597 22.1653 302.319 22.848C302.063 23.5093 301.839 24.1493 301.647 24.768C301.477 25.3653 301.359 25.8773 301.295 26.304ZM328.258 17.184C328.45 16.928 328.631 16.8 328.802 16.8C328.93 16.8213 329.047 16.9707 329.154 17.248C329.282 17.5253 329.346 18.08 329.346 18.912C327.661 21.4507 326.135 23.712 324.77 25.696C324.194 26.5493 323.618 27.3813 323.042 28.192C322.466 29.0027 321.943 29.728 321.474 30.368C321.026 31.008 320.642 31.52 320.322 31.904C320.023 32.288 319.842 32.48 319.778 32.48C319.415 32.48 319.042 32.32 318.658 32C318.317 31.808 317.922 31.5627 317.474 31.264C317.047 30.9653 316.642 30.6453 316.258 30.304C315.853 29.9627 315.511 29.6213 315.234 29.28C314.957 28.9387 314.818 28.6187 314.818 28.32C314.818 27.8293 314.903 27.1787 315.074 26.368C315.245 25.536 315.49 24.608 315.81 23.584C316.109 22.56 316.461 21.4613 316.866 20.288C317.271 19.0933 317.709 17.8773 318.178 16.64C317.431 16.64 316.855 16.6933 316.45 16.8C316.023 16.8853 315.703 16.9707 315.49 17.056C315.277 17.1413 315.127 17.2053 315.042 17.248C314.957 17.2907 314.882 17.2693 314.818 17.184C314.69 17.0773 314.701 16.832 314.85 16.448C314.999 16.064 315.213 15.6373 315.49 15.168C315.746 14.6987 316.045 14.24 316.386 13.792C316.706 13.344 316.994 12.992 317.25 12.736C317.399 12.5867 317.698 12.512 318.146 12.512C318.615 12.512 319.17 12.544 319.81 12.608C320.13 11.8613 320.418 11.1893 320.674 10.592C320.93 9.99467 321.175 9.45067 321.41 8.96C321.645 8.448 321.869 7.968 322.082 7.52C322.317 7.05066 322.573 6.57066 322.85 6.08C323.021 5.97333 323.362 6.048 323.874 6.304C324.386 6.53867 324.898 6.85867 325.41 7.264C325.922 7.648 326.349 8.064 326.69 8.512C327.053 8.96 327.17 9.32267 327.042 9.6C326.999 9.728 326.935 9.87733 326.85 10.048C326.786 10.1973 326.679 10.4107 326.53 10.688C326.402 10.944 326.231 11.2853 326.018 11.712C325.826 12.1387 325.581 12.672 325.282 13.312C325.879 13.3547 326.402 13.3547 326.85 13.312C327.298 13.2693 327.607 13.1627 327.778 12.992C327.991 12.8 328.109 12.7787 328.13 12.928C328.151 13.056 328.109 13.2907 328.002 13.632C327.895 13.9733 327.735 14.368 327.522 14.816C327.309 15.2427 327.085 15.6587 326.85 16.064C326.615 16.448 326.37 16.7787 326.114 17.056C325.858 17.3333 325.634 17.4613 325.442 17.44C325.101 17.376 324.77 17.3227 324.45 17.28C324.151 17.216 323.853 17.1627 323.554 17.12C322.765 18.976 322.018 20.9173 321.314 22.944C320.631 24.9707 320.119 26.9333 319.778 28.832C320.119 28.4267 320.503 27.9467 320.93 27.392C321.378 26.8373 321.826 26.2507 322.274 25.632C322.743 24.992 323.213 24.3413 323.682 23.68C324.151 23.0187 324.61 22.3787 325.058 21.76C326.082 20.288 327.149 18.7627 328.258 17.184ZM335.595 12C335.446 12 335.105 11.9147 334.571 11.744C334.059 11.552 333.526 11.3067 332.971 11.008C332.417 10.7093 331.915 10.3787 331.467 10.016C331.019 9.632 330.795 9.25867 330.795 8.896C330.795 8.46933 330.913 7.98933 331.147 7.456C331.382 6.90133 331.638 6.368 331.915 5.856C332.214 5.344 332.481 4.896 332.715 4.512C332.95 4.10667 333.067 3.82933 333.067 3.68C333.131 3.68 333.291 3.744 333.547 3.872C333.825 3.97867 334.134 4.128 334.475 4.32C334.838 4.49067 335.211 4.69333 335.595 4.928C335.979 5.16267 336.321 5.408 336.619 5.664C336.918 5.89867 337.153 6.13333 337.323 6.368C337.494 6.60267 337.537 6.80533 337.451 6.976C337.281 7.36 337.089 7.79733 336.875 8.288C336.662 8.75733 336.459 9.22667 336.267 9.696C336.075 10.1653 335.915 10.6133 335.787 11.04C335.659 11.4453 335.595 11.7653 335.595 12ZM337.739 17.024C337.953 16.7253 338.145 16.576 338.315 16.576C338.465 16.576 338.593 16.7253 338.699 17.024C338.827 17.3013 338.891 17.8773 338.891 18.752C337.59 20.7787 336.417 22.592 335.371 24.192C334.923 24.8747 334.475 25.5467 334.027 26.208C333.601 26.848 333.206 27.424 332.843 27.936C332.481 28.448 332.171 28.8533 331.915 29.152C331.681 29.472 331.531 29.632 331.467 29.632C331.297 29.632 331.126 29.5893 330.955 29.504C330.806 29.4187 330.646 29.3227 330.475 29.216C330.177 29.1093 329.761 28.9067 329.227 28.608C328.715 28.3093 328.203 27.968 327.691 27.584C327.179 27.2 326.742 26.8053 326.379 26.4C325.995 25.9947 325.803 25.632 325.803 25.312C325.803 24.6933 325.91 23.9467 326.123 23.072C326.337 22.1973 326.603 21.2907 326.923 20.352C327.243 19.4133 327.595 18.4853 327.979 17.568C328.363 16.6293 328.715 15.7867 329.035 15.04C329.355 14.272 329.622 13.6427 329.835 13.152C330.049 12.64 330.155 12.3413 330.155 12.256C330.219 12.256 330.379 12.32 330.635 12.448C330.913 12.5547 331.222 12.704 331.563 12.896C331.926 13.0667 332.299 13.2693 332.683 13.504C333.067 13.7387 333.409 13.984 333.707 14.24C334.006 14.4747 334.241 14.7093 334.411 14.944C334.582 15.1787 334.625 15.3813 334.539 15.552C334.411 15.8507 334.177 16.3733 333.835 17.12C333.494 17.8453 333.131 18.7093 332.747 19.712C332.363 20.6933 331.99 21.7493 331.627 22.88C331.286 24.0107 331.03 25.1093 330.859 26.176L337.739 17.024ZM351.953 7.36C352.145 7.27467 352.39 7.296 352.689 7.424C353.009 7.53067 353.34 7.712 353.681 7.968C354.044 8.20267 354.396 8.48 354.737 8.8C355.078 9.12 355.366 9.44 355.601 9.76C355.857 10.0587 356.038 10.336 356.145 10.592C356.273 10.8267 356.284 10.9867 356.177 11.072C356.134 11.0933 356.07 11.072 355.985 11.008C355.9 10.944 355.804 10.88 355.697 10.816C355.59 10.7307 355.473 10.6773 355.345 10.656C355.217 10.6347 355.089 10.688 354.961 10.816C352.294 13.5253 350.054 16.0747 348.241 18.464C346.428 20.8533 344.945 22.9653 343.793 24.8C342.449 26.9333 341.361 28.9067 340.529 30.72C340.294 30.72 340.06 30.6347 339.825 30.464C339.59 30.3147 339.356 30.1227 339.121 29.888C338.908 29.6747 338.705 29.4507 338.513 29.216C338.342 29.0027 338.204 28.8213 338.097 28.672C337.777 28.48 337.436 28.256 337.073 28C336.732 27.7227 336.412 27.456 336.113 27.2C335.793 26.944 335.537 26.6987 335.345 26.464C335.132 26.208 335.025 25.9947 335.025 25.824C335.025 25.5467 335.1 25.0773 335.249 24.416C335.377 23.7547 335.548 22.9973 335.761 22.144C335.974 21.2907 336.209 20.384 336.465 19.424C336.721 18.464 336.956 17.5467 337.169 16.672C337.382 15.7973 337.553 15.0187 337.681 14.336C337.83 13.632 337.905 13.12 337.905 12.8C338.374 12.7787 338.865 12.896 339.377 13.152C339.91 13.3867 340.38 13.6747 340.785 14.016C341.212 14.3573 341.542 14.72 341.777 15.104C342.033 15.488 342.129 15.808 342.065 16.064C342.022 16.256 341.937 16.608 341.809 17.12C341.702 17.6107 341.564 18.208 341.393 18.912C341.244 19.5947 341.062 20.3307 340.849 21.12C340.657 21.9093 340.465 22.688 340.273 23.456C340.828 22.496 341.446 21.4827 342.129 20.416C342.812 19.328 343.516 18.2507 344.241 17.184C344.988 16.096 345.734 15.04 346.481 14.016C347.228 12.992 347.942 12.0533 348.625 11.2C349.308 10.3253 349.937 9.55733 350.513 8.896C351.089 8.23467 351.569 7.72267 351.953 7.36ZM367.037 17.824C367.251 17.696 367.443 17.6853 367.613 17.792C367.805 17.8987 367.965 18.0587 368.093 18.272C368.243 18.464 368.339 18.6667 368.381 18.88C368.445 19.0933 368.456 19.2427 368.413 19.328C368.2 19.6693 367.848 20.16 367.357 20.8C366.888 21.44 366.333 22.144 365.693 22.912C365.053 23.68 364.349 24.4587 363.581 25.248C362.813 26.0373 362.045 26.7627 361.277 27.424C360.509 28.064 359.752 28.5867 359.005 28.992C358.28 29.4187 357.619 29.632 357.021 29.632C356.296 29.632 355.496 29.5147 354.621 29.28C353.768 29.0453 352.957 28.672 352.189 28.16C351.443 27.6693 350.824 27.04 350.333 26.272C349.821 25.4827 349.565 24.544 349.565 23.456C349.565 21.92 349.843 20.48 350.397 19.136C350.931 17.7707 351.571 16.5867 352.317 15.584C353.085 14.56 353.885 13.7493 354.717 13.152C355.549 12.5333 356.264 12.2133 356.861 12.192C357.032 12.192 357.331 12.2773 357.757 12.448C358.184 12.5973 358.643 12.8 359.133 13.056C359.624 13.2907 360.093 13.5573 360.541 13.856C360.989 14.1547 361.331 14.4427 361.565 14.72C361.715 14.72 361.896 14.7627 362.109 14.848C362.323 14.9333 362.525 15.0827 362.717 15.296C362.931 15.5093 363.112 15.808 363.261 16.192C363.411 16.576 363.485 17.0667 363.485 17.664C363.443 18.3467 363.293 19.0293 363.037 19.712C362.803 20.3947 362.461 21.0133 362.013 21.568C361.565 22.1013 361.011 22.5493 360.349 22.912C359.688 23.2533 358.92 23.424 358.045 23.424C357.085 23.424 356.349 23.2747 355.837 22.976C355.347 22.656 355.016 22.2613 354.845 21.792C354.781 22.0267 354.717 22.24 354.653 22.432C354.589 22.624 354.536 22.816 354.493 23.008C354.451 23.1787 354.408 23.3707 354.365 23.584C354.344 23.7973 354.323 24.0533 354.301 24.352C354.28 24.8 354.344 25.2053 354.493 25.568C354.643 25.9307 354.856 26.24 355.133 26.496C355.411 26.752 355.72 26.944 356.061 27.072C356.424 27.2 356.797 27.2533 357.181 27.232C357.608 27.2107 358.099 27.04 358.653 26.72C359.208 26.3787 359.795 25.9413 360.413 25.408C361.053 24.8747 361.693 24.2773 362.333 23.616C362.973 22.9333 363.581 22.2507 364.157 21.568C364.755 20.864 365.299 20.192 365.789 19.552C366.301 18.8907 366.717 18.3147 367.037 17.824ZM360.605 15.392C360.392 15.392 360.061 15.4987 359.613 15.712C359.187 15.9253 358.707 16.2453 358.173 16.672C357.661 17.0987 357.139 17.6533 356.605 18.336C356.072 18.9973 355.613 19.7973 355.229 20.736C355.336 20.8427 355.485 20.928 355.677 20.992C355.869 21.056 356.115 21.088 356.413 21.088C357.032 21.088 357.597 20.9067 358.109 20.544C358.643 20.16 359.112 19.6907 359.517 19.136C359.923 18.56 360.264 17.952 360.541 17.312C360.819 16.672 361.021 16.096 361.149 15.584C361.021 15.456 360.84 15.392 360.605 15.392Z" fill="#2F2F2F"/>
</svg>
